<mxfile host="app.diagrams.net" modified="2020-06-03T11:17:43.636Z" agent="5.0 (Macintosh)" etag="Au8FVwVujEH2H0_PM8E7" version="13.1.14" type="github">
  <diagram id="m3KRbYWSe99RINT4x1fJ" name="Page-1">
    <mxGraphModel dx="946" dy="628" grid="0" gridSize="10" guides="1" tooltips="1" connect="1" arrows="1" fold="1" page="1" pageScale="1" pageWidth="850" pageHeight="1100" math="0" shadow="0">
      <root>
        <mxCell id="0" />
        <mxCell id="1" parent="0" />
        <mxCell id="LpO2boE_ilgJCTdWvTQI-1" value="" style="points=[];aspect=fixed;html=1;align=center;shadow=0;dashed=0;image;image=img/lib/allied_telesis/computer_and_terminals/Personal_Computer.svg;" parent="1" vertex="1">
          <mxGeometry x="403" y="130" width="45.6" height="61.800000000000004" as="geometry" />
        </mxCell>
        <mxCell id="LpO2boE_ilgJCTdWvTQI-2" value="" style="points=[];aspect=fixed;html=1;align=center;shadow=0;dashed=0;image;image=img/lib/allied_telesis/computer_and_terminals/Personal_Computer.svg;" parent="1" vertex="1">
          <mxGeometry x="403" y="233" width="45.6" height="61.800000000000004" as="geometry" />
        </mxCell>
        <mxCell id="LpO2boE_ilgJCTdWvTQI-3" value="" style="points=[];aspect=fixed;html=1;align=center;shadow=0;dashed=0;image;image=img/lib/allied_telesis/computer_and_terminals/Server_Desktop.svg;" parent="1" vertex="1">
          <mxGeometry x="108.69999999999999" y="332" width="42.599999999999994" height="54" as="geometry" />
        </mxCell>
        <mxCell id="LpO2boE_ilgJCTdWvTQI-4" value="Klient2" style="text;html=1;strokeColor=none;fillColor=none;align=center;verticalAlign=middle;whiteSpace=wrap;rounded=0;" parent="1" vertex="1">
          <mxGeometry x="401" y="294.8" width="56" height="28.2" as="geometry" />
        </mxCell>
        <mxCell id="LpO2boE_ilgJCTdWvTQI-5" value="&lt;div&gt;FP&lt;/div&gt;&lt;div&gt;(File &amp;amp; Print Server)&lt;/div&gt;" style="text;html=1;strokeColor=none;fillColor=none;align=center;verticalAlign=middle;whiteSpace=wrap;rounded=0;" parent="1" vertex="1">
          <mxGeometry x="69.5" y="383" width="121" height="48" as="geometry" />
        </mxCell>
        <mxCell id="LpO2boE_ilgJCTdWvTQI-6" value="Klient1" style="text;html=1;strokeColor=none;fillColor=none;align=center;verticalAlign=middle;whiteSpace=wrap;rounded=0;" parent="1" vertex="1">
          <mxGeometry x="403" y="193.79999999999998" width="40" height="20" as="geometry" />
        </mxCell>
        <mxCell id="LpO2boE_ilgJCTdWvTQI-7" value="" style="image;html=1;labelBackgroundColor=#ffffff;image=img/lib/clip_art/networking/Switch_128x128.png" parent="1" vertex="1">
          <mxGeometry x="236" y="241" width="93" height="86" as="geometry" />
        </mxCell>
        <mxCell id="LpO2boE_ilgJCTdWvTQI-8" value="Cisco 3560 Switch" style="text;html=1;strokeColor=none;fillColor=none;align=center;verticalAlign=middle;whiteSpace=wrap;rounded=0;" parent="1" vertex="1">
          <mxGeometry x="224" y="230" width="120" height="20" as="geometry" />
        </mxCell>
        <mxCell id="LpO2boE_ilgJCTdWvTQI-9" value="" style="points=[];aspect=fixed;html=1;align=center;shadow=0;dashed=0;image;image=img/lib/allied_telesis/computer_and_terminals/Server_Desktop.svg;" parent="1" vertex="1">
          <mxGeometry x="110" y="239.9" width="42.599999999999994" height="54" as="geometry" />
        </mxCell>
        <mxCell id="LpO2boE_ilgJCTdWvTQI-10" value="" style="points=[];aspect=fixed;html=1;align=center;shadow=0;dashed=0;image;image=img/lib/allied_telesis/computer_and_terminals/Server_Desktop.svg;" parent="1" vertex="1">
          <mxGeometry x="110" y="137.8" width="42.599999999999994" height="54" as="geometry" />
        </mxCell>
        <mxCell id="LpO2boE_ilgJCTdWvTQI-11" value="" style="points=[];aspect=fixed;html=1;align=center;shadow=0;dashed=0;image;image=img/lib/allied_telesis/computer_and_terminals/Server_Desktop.svg;" parent="1" vertex="1">
          <mxGeometry x="406" y="333" width="42.599999999999994" height="54" as="geometry" />
        </mxCell>
        <mxCell id="LpO2boE_ilgJCTdWvTQI-12" value="&lt;div&gt;DC1&lt;/div&gt;" style="text;html=1;strokeColor=none;fillColor=none;align=center;verticalAlign=middle;whiteSpace=wrap;rounded=0;" parent="1" vertex="1">
          <mxGeometry x="110" y="193.8" width="40" height="20" as="geometry" />
        </mxCell>
        <mxCell id="LpO2boE_ilgJCTdWvTQI-13" value="DC2" style="text;html=1;strokeColor=none;fillColor=none;align=center;verticalAlign=middle;whiteSpace=wrap;rounded=0;" parent="1" vertex="1">
          <mxGeometry x="108" y="297.79999999999995" width="40" height="20" as="geometry" />
        </mxCell>
        <mxCell id="LpO2boE_ilgJCTdWvTQI-14" value="&lt;div&gt;WSUS&lt;/div&gt;" style="text;html=1;strokeColor=none;fillColor=none;align=center;verticalAlign=middle;whiteSpace=wrap;rounded=0;" parent="1" vertex="1">
          <mxGeometry x="404" y="387" width="40" height="20" as="geometry" />
        </mxCell>
      </root>
    </mxGraphModel>
  </diagram>
</mxfile>
